<?xml version="1.0" standalone="no"?>
<!DOCTYPE svg PUBLIC "-//W3C//DTD SVG 20010904//EN"
 "http://www.w3.org/TR/2001/REC-SVG-20010904/DTD/svg10.dtd">
<svg version="1.0" xmlns="http://www.w3.org/2000/svg"
 width="700.000000pt" height="700.000000pt" viewBox="0 0 700.000000 700.000000"
 preserveAspectRatio="xMidYMid meet">
<metadata>
Created by potrace 1.11, written by Peter Selinger 2001-2013
</metadata>
<g transform="translate(0.000000,700.000000) scale(0.100000,-0.100000)"
fill="#000000" stroke="none">
<path d="M607 6940 c-14 -49 -24 -94 -42 -195 -13 -71 -23 -150 -32 -260 -10
-111 -10 -386 0 -480 15 -144 17 -161 27 -210 5 -27 12 -61 14 -75 12 -67 48
-196 86 -305 80 -230 255 -528 392 -668 16 -16 28 -30 28 -33 0 -7 -158 112
-214 161 -6 6 -38 32 -71 60 -165 137 -440 427 -532 559 -21 31 -41 55 -44 56
-11 0 3 -318 16 -370 2 -8 7 -35 10 -60 57 -430 225 -852 470 -1179 131 -174
300 -335 480 -456 55 -37 102 -69 105 -72 2 -2 -34 10 -80 27 -47 18 -101 38
-122 45 -177 64 -535 250 -696 361 -34 24 -62 38 -62 31 0 -7 14 -61 30 -122
17 -60 32 -117 34 -125 8 -29 64 -176 101 -260 113 -264 318 -560 516 -745
213 -199 457 -345 732 -436 l129 -43 -6 -65 c-7 -65 -14 -132 -21 -181 -2 -14
-7 -47 -10 -75 -32 -247 -139 -643 -226 -832 -10 -24 -19 -45 -19 -49 0 -7
-82 -170 -122 -243 -69 -126 -244 -373 -323 -457 -5 -6 -44 -49 -85 -95 -41
-46 -90 -97 -108 -115 l-33 -31 113 23 c62 12 124 25 138 27 14 3 52 12 85 20
33 9 71 18 85 21 94 18 388 106 550 164 178 65 523 211 576 244 5 4 50 28 100
54 209 109 594 354 626 399 5 7 8 7 8 0 0 -9 -45 -58 -212 -232 -20 -21 -16
-20 58 8 280 108 550 323 840 670 103 124 287 388 396 569 203 335 474 885
580 1175 15 39 34 91 43 116 16 44 19 47 83 68 163 55 393 185 527 298 247
208 420 458 525 761 38 109 35 108 174 62 130 -44 308 -134 480 -245 109 -70
151 -92 157 -83 7 11 21 85 35 178 5 42 6 338 0 348 -2 4 -7 34 -10 67 -10 87
-52 265 -87 375 -175 536 -534 968 -995 1198 -125 62 -322 129 -429 146 -22 4
-52 9 -67 11 -113 20 -179 24 -368 20 -118 -2 -226 -6 -240 -9 -14 -3 -46 -7
-72 -10 -189 -21 -527 -117 -723 -206 -392 -176 -728 -410 -1030 -715 -143
-144 -164 -168 -268 -305 -44 -58 -86 -111 -92 -118 -10 -11 -36 1 -141 64
-752 450 -1356 1066 -1706 1739 l-46 89 -15 -54z"/>
</g>
</svg>
