<?xml version="1.0" encoding="utf-8"?>
<!-- Generator: Adobe Illustrator 21.1.0, SVG Export Plug-In . SVG Version: 6.00 Build 0)  -->
<svg version="1.1" id="Laag_1" xmlns="http://www.w3.org/2000/svg" xmlns:xlink="http://www.w3.org/1999/xlink" x="0px" y="0px"
	 viewBox="0 0 20.8 24" style="enable-background:new 0 0 20.8 24;" xml:space="preserve">
<style type="text/css">
	.st0{opacity:0.12;}
</style>
<title>Asset 7</title>
<g class="st0">
	<path d="M7.9,9.1c0-0.4,0-0.8,0.1-1.1H6C5.9,8.3,5.9,8.7,5.9,9.1S5.9,9.8,6,10.2h1.9C7.9,9.8,7.9,9.4,7.9,9.1z"/>
	<path d="M6.5,6.8h1.7c0.2-0.7,0.4-1.4,0.8-2C7.9,5.2,7,5.9,6.5,6.8z"/>
	<path d="M10.4,4.6C9.9,5.3,9.6,6,9.3,6.8h2.1C11.2,6,10.9,5.3,10.4,4.6z"/>
	<path d="M14.3,6.8c-0.5-0.9-1.4-1.6-2.4-2c0.3,0.6,0.6,1.3,0.8,2H14.3z"/>
	<path d="M10.4,13.5c0.5-0.7,0.8-1.4,1.1-2.2H9.3C9.6,12.1,9.9,12.9,10.4,13.5z"/>
	<path d="M6.5,11.3c0.5,0.9,1.4,1.6,2.4,2c-0.3-0.6-0.6-1.3-0.8-2H6.5z"/>
	<path d="M17.1,0H3.7C2.3,0,1.1,1.2,1.1,2.7l0,21.3l9.3-4l9.3,4V2.7C19.7,1.2,18.5,0,17.1,0z M10.4,14.7c-3.1,0-5.6-2.5-5.6-5.6
		s2.5-5.6,5.6-5.6C13.5,3.4,16,6,16,9.1S13.5,14.7,10.4,14.7z"/>
	<path d="M12.9,9.1c0,0.4,0,0.8-0.1,1.1h1.9c0.1-0.4,0.1-0.7,0.1-1.1s-0.1-0.8-0.1-1.1h-1.9C12.9,8.3,12.9,8.7,12.9,9.1z"/>
	<path d="M11.8,13.3c1-0.4,1.9-1.1,2.4-2h-1.7C12.4,12,12.2,12.7,11.8,13.3z"/>
	<path d="M9.1,7.9C9,8.3,9,8.7,9,9.1s0,0.8,0.1,1.1h2.6c0.1-0.4,0.1-0.7,0.1-1.1s0-0.8-0.1-1.1H9.1z"/>
</g>
</svg>
