<?xml version="1.0" encoding="utf-8"?>
<!-- Generator: Adobe Illustrator 21.1.0, SVG Export Plug-In . SVG Version: 6.00 Build 0)  -->
<svg version="1.1" id="Laag_1" xmlns="http://www.w3.org/2000/svg" xmlns:xlink="http://www.w3.org/1999/xlink" x="0px" y="0px"
	 viewBox="0 0 127.2 127.2" style="enable-background:new 0 0 127.2 127.2;" xml:space="preserve">
<style type="text/css">
	.st0{fill:#E0E0E0;}
	.st1{fill:#FFFFFF;}
	.st2{fill:#FF7058;}
	.st3{fill:#FFD15C;}
	.st4{fill:#F1543F;}
	.st5{fill:#F8B64C;}
	.st6{fill:#FFC952;}
</style>
<title>Middel 4</title>
<g>
	<polygon class="st0" points="75.2,104.6 51.9,104.6 55.9,96.2 59.3,88.2 67.8,88.2 71.3,96.2 	"/>
	<path class="st0" d="M90.1,104.6h-53c-2.9,0-5.3,2.4-5.3,5.3v17.2h63.3v-17.2C95.4,107,93,104.6,90.1,104.6z"/>
	<path class="st0" d="M71.3,96.2c-2.1,1.1-4.2,2.1-6.4,2.9l-1.3,0.3l-1.3-0.5C60.1,98,58,97,55.9,95.9l3.4-7.9h8.2L71.3,96.2z"/>
	<g>
		<path class="st0" d="M0,14.6v10.9c0,26.5,16.4,49.3,39.5,58.8c7.4,3.2,15.6,4.8,24.1,4.8s16.7-1.6,24.1-4.8
			c23-9.5,39.5-32.3,39.5-58.8V14.6H0z M116.6,25.4c0,12.7-4.5,24.4-12.2,33.6C94.6,70.7,80,78.4,63.6,78.4s-31-7.4-40.8-19.3
			c-7.4-9-12.2-20.9-12.2-33.6v-0.3h105.7v0.3L116.6,25.4L116.6,25.4z"/>
		<path class="st0" d="M104.9,0H22.3c-1.9,0-3.2,1.6-3.2,3.2c0,1.9,1.3,3.4,3.2,3.4h82.7c1.9,0,3.2-1.6,3.2-3.2
			C108.1,1.6,106.8,0,104.9,0z"/>
	</g>
	<path class="st0" d="M104.9,6.6v28.6c0,26.5-16.4,50.6-41.3,60.1C38.7,85.6,22.3,61.7,22.3,35V6.6H104.9z"/>
	<polygon class="st1" points="63.6,18.5 69.1,35.5 86.9,35.5 72.6,46.1 77.9,63 63.6,52.5 49.3,63 54.6,46.1 40.3,35.5 58,35.5 	"/>
	<rect x="22.3" y="6.6" class="st0" width="82.4" height="4"/>
</g>
<g>
	<polygon class="st2" points="71,85 56.1,85 58.7,79.6 60.9,74.5 66.3,74.5 68.5,79.6 	"/>
	<path class="st3" d="M80.5,85H46.7c-1.9,0-3.4,1.5-3.4,3.4v11h40.4v-11C83.9,86.5,82.3,85,80.5,85z"/>
	<path class="st4" d="M68.5,79.6c-1.4,0.7-2.7,1.4-4.1,1.9l-0.8,0.2l-0.8-0.3c-1.4-0.5-2.7-1.2-4.1-1.9l2.2-5.1h5.2L68.5,79.6z"/>
	<g>
		<path class="st5" d="M23,27.5v6.9C23,51.3,33.5,65.9,48.2,72c4.7,2,10,3,15.4,3s10.7-1,15.4-3c14.7-6.1,25.2-20.6,25.2-37.5v-6.9
			H23z M97.4,34.4c0,8.1-2.9,15.6-7.8,21.5c-6.3,7.4-15.6,12.3-26,12.3s-19.8-4.7-26-12.3c-4.7-5.7-7.8-13.4-7.8-21.5v-0.2h67.5v0.2
			L97.4,34.4L97.4,34.4z"/>
		<path class="st5" d="M90,18.2H37.2c-1.2,0-2,1-2,2c0,1.2,0.8,2.2,2,2.2H90c1.2,0,2-1,2-2C92,19.2,91.1,18.2,90,18.2z"/>
	</g>
	<path class="st3" d="M90,22.4v18.3C90,57.6,79.5,73,63.6,79.1c-15.9-6.3-26.4-21.5-26.4-38.6V22.4H90z"/>
	<rect x="37.2" y="22.4" class="st6" width="52.6" height="2.5"/>
</g>
</svg>
