<svg xmlns="http://www.w3.org/2000/svg" xmlns:xlink="http://www.w3.org/1999/xlink" viewBox="0 0 361.41 512"><defs><style>.cls-1{fill:url(#Naamloos_verloop_11);}.cls-2{opacity:0.12;}</style><linearGradient id="Naamloos_verloop_11" y1="256" x2="361.41" y2="256" gradientUnits="userSpaceOnUse"><stop offset="0" stop-color="#00b0ff"/><stop offset="0.35" stop-color="#1a98ec"/><stop offset="0.75" stop-color="#3183db"/><stop offset="1" stop-color="#3a7bd5"/></linearGradient></defs><title>Middel 1</title><g id="Laag_2" data-name="Laag 2"><g id="Capa_1" data-name="Capa 1"><path class="cls-1" d="M258.14,36.19C233.29,13.54,206.49,0,180.71,0,96,0,0,144.73,0,286.12a307.92,307.92,0,0,0,3,42C19,444,99.73,512,180.71,512c90.35,0,180.71-84.5,180.71-225.88,0-98.35-46.49-198.19-103.28-249.93"/><path class="cls-2" d="M258.14,36.19c43.79,53,76.92,135.8,76.92,217.65,0,135.68-85.41,216.76-170.83,216.76C95.85,470.59,27.57,418.5,3,328.15,19,444,99.73,512,180.71,512c90.35,0,180.71-84.5,180.71-225.88,0-98.35-46.49-198.19-103.27-249.93"/></g></g></svg>