<svg xmlns="http://www.w3.org/2000/svg" viewBox="0 0 18 14.89"><defs><style>.cls-1{fill:#fafafa;}</style></defs><title>Middel 4</title><g id="Laag_2" data-name="Laag 2"><g id="Header"><g id="Laag_8" data-name="Laag 8"><path class="cls-1" d="M3,8.86v2.74a.26.26,0,0,0,.13.23l5.56,3a.26.26,0,0,0,.25,0l5.56-3a.26.26,0,0,0,.13-.23V8.86a.26.26,0,0,0-.38-.23L9,11.53a.26.26,0,0,1-.25,0L3.42,8.63A.26.26,0,0,0,3,8.86ZM8.74,0,.13,4.72a.26.26,0,0,0,0,.45l8.6,4.69a.26.26,0,0,0,.25,0l7-3.8a.26.26,0,0,1,.38.23v5a.26.26,0,0,0,.26.26h1.15a.26.26,0,0,0,.26-.26V5.1a.26.26,0,0,0-.13-.23L9,0A.26.26,0,0,0,8.74,0Z"/></g></g></g></svg>