<svg xmlns="http://www.w3.org/2000/svg" viewBox="0 0 18 18"><defs><style>.cls-1{fill:#fafafa;}</style></defs><title>Middel 3</title><g id="Laag_2" data-name="Laag 2"><g id="Header"><g id="Laag_7" data-name="Laag 7"><g id="_Groep_" data-name="&lt;Groep&gt;"><path id="_Pad_" data-name="&lt;Pad&gt;" class="cls-1" d="M1.8,3.6H16.2a1.8,1.8,0,1,0,0-3.6H1.8a1.8,1.8,0,0,0,0,3.6Z"/><path id="_Pad_2" data-name="&lt;Pad&gt;" class="cls-1" d="M16.2,7.2H1.8a1.8,1.8,0,0,0,0,3.6H16.2a1.8,1.8,0,1,0,0-3.6Z"/><path id="_Pad_3" data-name="&lt;Pad&gt;" class="cls-1" d="M8.1,14.4H.9c-.5,0-.9.81-.9,1.8S.4,18,.9,18H8.1c.5,0,.9-.81.9-1.8S8.6,14.4,8.1,14.4Z"/></g></g></g></g></svg>