<svg xmlns="http://www.w3.org/2000/svg" viewBox="0 0 13.01 18"><defs><style>.cls-1{fill:#fafafa;}</style></defs><title>Middel 5</title><g id="Laag_2" data-name="Laag 2"><g id="Header"><g id="Laag_8" data-name="Laag 8"><path class="cls-1" d="M6.51,18A6.51,6.51,0,0,1,0,11.49a9.57,9.57,0,0,1,.12-1.38L.47,10l.66-.31.75-.38,1.41,1.48.4.42.3-.43L6.24,7.51,8.17,9.34,6.34,7.11,6.22,7l-.15.17L3.67,9.76,2.48,8.14l-.24-.33L1.78,8l-1.16.4-.15.05C1.44,4.62,3.87,0,6.51,0,9.93,0,13,7.81,13,11.49A6.51,6.51,0,0,1,6.51,18Z"/></g></g></g></svg>