<?xml version="1.0" encoding="utf-8"?>
<!-- Generator: Adobe Illustrator 21.1.0, SVG Export Plug-In . SVG Version: 6.00 Build 0)  -->
<svg version="1.1" id="Laag_1" xmlns="http://www.w3.org/2000/svg" xmlns:xlink="http://www.w3.org/1999/xlink" x="0px" y="0px"
	 viewBox="0 0 75 75" style="enable-background:new 0 0 75 75;" xml:space="preserve">
<style type="text/css">
	.st0{fill:#FAFAFA;}
	.st1{fill:#DE3A3C;}
</style>
<title>Middel 3</title>
<g id="Laag_2">
	<g id="top_nav">
		<circle class="st0" cx="37.5" cy="37.5" r="37.5"/>
		<g>
			<path class="st1" d="M57.4,35.1c0.1-1.2-0.3-2.5-1.1-3.4c0.3-1,0.3-2,0-2.9c-0.2-0.9-0.7-1.7-1.3-2.3c0.2-1.6-0.3-3.2-1.3-4.5
				c-1.3-1.4-3.1-2.1-4.9-2h-3.2c-1.2,0-2.4,0.1-3.6,0.4c-1.3,0.3-2.3,0.5-3,0.7c-0.7,0.2-1.7,0.6-3,1c-1.3,0.5-2.6,0.9-4,1.1
				c-0.4,0-0.8,0.2-1.1,0.5c-0.3,0.3-0.5,0.7-0.5,1.1v16c0,0.4,0.2,0.8,0.5,1.1c0.3,0.3,0.7,0.5,1.1,0.5c0.4,0.1,1,0.6,1.9,1.5
				s1.7,1.9,2.5,3c0.8,1,1.6,2,2.5,3c0.3,0.3,0.6,0.8,0.8,1.2c0.2,0.4,0.3,0.8,0.4,1.2c0.1,0.4,0.2,0.9,0.3,1.5s0.2,1.2,0.3,1.5
				c0.1,0.4,0.3,0.9,0.5,1.3c0.2,0.5,0.5,0.9,0.8,1.3c0.3,0.3,0.7,0.5,1.1,0.5c0.7,0,1.4-0.1,2.1-0.3c0.5-0.1,1-0.4,1.5-0.6
				c0.4-0.3,0.7-0.6,1-1c0.2-0.4,0.4-0.7,0.6-1.1c0.1-0.4,0.2-0.8,0.3-1.3c0.1-0.4,0.1-0.8,0.1-1.1c0-0.3,0-0.6,0-1
				c0-0.6-0.1-1.3-0.2-1.9c-0.1-0.5-0.3-1-0.5-1.5c-0.2-0.4-0.4-0.8-0.7-1.4c-0.1-0.1-0.1-0.3-0.3-0.5c-0.1-0.2-0.2-0.4-0.3-0.5
				c-0.1-0.2-0.1-0.4-0.2-0.6h6.9c2.6,0,4.8-2.2,4.8-4.8c0-1.4-0.5-2.7-1.4-3.7C57.2,36.4,57.4,35.8,57.4,35.1z"/>
			<path class="st1" d="M27.2,42.4c0.9,0,1.6-0.7,1.6-1.6v-16c0-0.9-0.7-1.6-1.6-1.6H20c-0.9,0-1.6,0.7-1.6,1.6v16
				c0,0.9,0.7,1.6,1.6,1.6H27.2L27.2,42.4z M24.4,27c0.6,0.7,0.5,1.7-0.1,2.3c-0.7,0.6-1.7,0.5-2.3-0.1c-0.6-0.6-0.6-1.5,0-2.1
				c0.6-0.7,1.6-0.7,2.3-0.1C24.3,26.9,24.4,26.9,24.4,27z"/>
		</g>
	</g>
</g>
</svg>
