<svg xmlns="http://www.w3.org/2000/svg" viewBox="0 0 75 75"><defs><style>.cls-1{fill:#fafafa;}.cls-2{fill:#4deaa1;}</style></defs><title>Middel 3</title><g id="Laag_2" data-name="Laag 2"><g id="top_nav"><circle class="cls-1" cx="37.5" cy="37.5" r="37.5"/><path class="cls-2" d="M57,37.38a5.48,5.48,0,0,0,1.38-3.72,4.87,4.87,0,0,0-4.8-4.8H46.67a6.3,6.3,0,0,1,.2-.6,4.18,4.18,0,0,1,.27-.55q.17-.3.25-.45.45-.85.69-1.4a10.21,10.21,0,0,0,.47-1.5,7.79,7.79,0,0,0,.24-1.9c0-.4,0-.73,0-1a10.75,10.75,0,0,0-.12-1.13,6.31,6.31,0,0,0-.3-1.25,5.82,5.82,0,0,0-.6-1.12,3.51,3.51,0,0,0-1-1,5.48,5.48,0,0,0-1.5-.65A7.47,7.47,0,0,0,43.19,16a1.54,1.54,0,0,0-1.12.48,4.34,4.34,0,0,0-.85,1.25,7.44,7.44,0,0,0-.49,1.3q-.14.55-.31,1.52t-.34,1.51a8,8,0,0,1-.44,1.21,3.83,3.83,0,0,1-.78,1.2,37,37,0,0,0-2.53,3q-1.23,1.6-2.53,3T31.91,32a1.64,1.64,0,0,0-1.07.51,1.51,1.51,0,0,0-.45,1.09v16a1.5,1.5,0,0,0,.47,1.11,1.65,1.65,0,0,0,1.12.49,18.28,18.28,0,0,1,4,1.1q1.92.65,3,1t3,.73a18.58,18.58,0,0,0,3.6.39h3.23a6.21,6.21,0,0,0,4.93-1.95A6,6,0,0,0,55,48a4.86,4.86,0,0,0,1.35-2.35,5.14,5.14,0,0,0,0-2.92,5.19,5.19,0,0,0,1.07-3.43A6,6,0,0,0,57,37.38Z"/><path class="cls-2" d="M27.19,32.05H20a1.62,1.62,0,0,0-1.6,1.6v16a1.62,1.62,0,0,0,1.6,1.6h7.2a1.62,1.62,0,0,0,1.6-1.6v-16a1.62,1.62,0,0,0-1.6-1.6ZM24.31,47.59a1.6,1.6,0,0,1-2.26-2.26,1.6,1.6,0,1,1,2.26,2.26Z"/></g></g></svg>