<svg xmlns="http://www.w3.org/2000/svg" xmlns:xlink="http://www.w3.org/1999/xlink" viewBox="0 0 40 38.4"><defs><style>.cls-1{fill:url(#Naamloos_verloop_48);}.cls-2{fill:url(#Naamloos_verloop_48-2);}</style><linearGradient id="Naamloos_verloop_48" x1="-1.35" y1="12.34" x2="45.31" y2="24.34" gradientUnits="userSpaceOnUse"><stop offset="0" stop-color="#3ad59d"/><stop offset="0.99" stop-color="#5fffa4"/><stop offset="1" stop-color="#5fffa4"/></linearGradient><linearGradient id="Naamloos_verloop_48-2" x1="-4.15" y1="23.2" x2="42.52" y2="35.2" xlink:href="#Naamloos_verloop_48"/></defs><title>Middel 2</title><g id="Laag_2" data-name="Laag 2"><g id="top_nav"><path class="cls-1" d="M38.62,21.33A5.48,5.48,0,0,0,40,17.6a4.87,4.87,0,0,0-4.8-4.8H28.28a6.3,6.3,0,0,1,.2-.6,4.18,4.18,0,0,1,.27-.55q.17-.3.25-.45.45-.85.69-1.4a10.21,10.21,0,0,0,.47-1.5,7.79,7.79,0,0,0,.24-1.9c0-.4,0-.73,0-1a10.75,10.75,0,0,0-.12-1.13A6.31,6.31,0,0,0,30,3a5.82,5.82,0,0,0-.6-1.12,3.51,3.51,0,0,0-1-1,5.48,5.48,0,0,0-1.5-.65A7.47,7.47,0,0,0,24.8,0a1.54,1.54,0,0,0-1.12.48,4.34,4.34,0,0,0-.85,1.25A7.44,7.44,0,0,0,22.34,3q-.14.55-.31,1.52t-.34,1.51a8,8,0,0,1-.44,1.21,3.83,3.83,0,0,1-.78,1.2,37,37,0,0,0-2.53,3q-1.23,1.6-2.53,3T13.52,16a1.64,1.64,0,0,0-1.07.51A1.51,1.51,0,0,0,12,17.57v16a1.5,1.5,0,0,0,.47,1.11,1.65,1.65,0,0,0,1.12.49,18.28,18.28,0,0,1,4,1.1q1.92.65,3,1t3,.73a18.58,18.58,0,0,0,3.6.39h3.23a6.21,6.21,0,0,0,4.93-1.95,6,6,0,0,0,1.23-4.53,4.86,4.86,0,0,0,1.35-2.35,5.14,5.14,0,0,0,0-2.92A5.19,5.19,0,0,0,39,23.23,6,6,0,0,0,38.62,21.33Z"/><path class="cls-2" d="M8.8,16H1.6a1.54,1.54,0,0,0-1.13.48A1.54,1.54,0,0,0,0,17.6v16a1.54,1.54,0,0,0,.48,1.12,1.54,1.54,0,0,0,1.13.47H8.8a1.62,1.62,0,0,0,1.6-1.6v-16A1.62,1.62,0,0,0,8.8,16ZM5.92,31.54A1.56,1.56,0,0,1,4.8,32a1.6,1.6,0,0,1-1.14-2.72,1.58,1.58,0,0,1,2.26,0,1.58,1.58,0,0,1,0,2.26Z"/></g></g></svg>