<svg xmlns="http://www.w3.org/2000/svg" xmlns:xlink="http://www.w3.org/1999/xlink" viewBox="0 0 541.53 129.54"><defs><style>.cls-1{fill:url(#Naamloos_verloop_10);}.cls-10,.cls-2{fill:#f1f2f3;}.cls-3{fill:url(#Naamloos_verloop_45);}.cls-4{fill:url(#Naamloos_verloop_12);}.cls-5{fill:url(#Naamloos_verloop_12-2);}.cls-6{fill:url(#Naamloos_verloop_12-3);}.cls-7{fill:url(#Naamloos_verloop_16);}.cls-8{fill:url(#Naamloos_verloop_16-2);}.cls-9{fill:url(#Naamloos_verloop_45-2);}.cls-10{stroke:#f1f2f3;stroke-miterlimit:10;stroke-width:2px;}</style><linearGradient id="Naamloos_verloop_10" x1="50.01" y1="129.54" x2="50.01" y2="68.39" gradientUnits="userSpaceOnUse"><stop offset="0" stop-color="#00b0ff"/><stop offset="0.02" stop-color="#03adfd"/><stop offset="0.21" stop-color="#2b89e0"/><stop offset="0.32" stop-color="#3a7bd5"/><stop offset="0.42" stop-color="#3a78d1"/><stop offset="0.53" stop-color="#3a6fc4"/><stop offset="0.65" stop-color="#3a61b0"/><stop offset="0.76" stop-color="#3a4d93"/><stop offset="0.76" stop-color="#3a4c92"/></linearGradient><linearGradient id="Naamloos_verloop_45" x1="51.04" y1="92.88" x2="86.98" y2="92.88" gradientUnits="userSpaceOnUse"><stop offset="0" stop-color="#fff" stop-opacity="0"/><stop offset="1" stop-opacity="0.3"/></linearGradient><linearGradient id="Naamloos_verloop_12" x1="2.31" y1="74.33" x2="86.98" y2="74.33" gradientUnits="userSpaceOnUse"><stop offset="0" stop-color="#00b0ff"/><stop offset="0.35" stop-color="#1a98ec"/><stop offset="0.75" stop-color="#3183db"/><stop offset="1" stop-color="#3a7bd5"/></linearGradient><linearGradient id="Naamloos_verloop_12-2" x1="27.03" y1="70.34" x2="44.49" y2="40.11" xlink:href="#Naamloos_verloop_12"/><linearGradient id="Naamloos_verloop_12-3" x1="5.74" y1="34.19" x2="123.83" y2="34.19" xlink:href="#Naamloos_verloop_12"/><linearGradient id="Naamloos_verloop_16" x1="88.64" y1="31.67" x2="123.83" y2="31.67" gradientUnits="userSpaceOnUse"><stop offset="0" stop-color="#ff5e62"/><stop offset="0.25" stop-color="#ff6763"/><stop offset="0.64" stop-color="#ff7e64"/><stop offset="1" stop-color="#f96"/></linearGradient><linearGradient id="Naamloos_verloop_16-2" x1="87.22" y1="55.58" x2="108.57" y2="55.58" xlink:href="#Naamloos_verloop_16"/><linearGradient id="Naamloos_verloop_45-2" x1="95.52" y1="69.85" x2="100.03" y2="44.31" xlink:href="#Naamloos_verloop_45"/></defs><title>Middel 4</title><g id="Laag_2" data-name="Laag 2"><g id="Laag_1-2" data-name="Laag 1"><path class="cls-1" d="M87.22,68.39S73,119.54,12.79,129.54c1.05-.17,2.71-2.38,3.38-3.08a48.9,48.9,0,0,0,7.27-9.87c4.77-8.44,6.68-17.49,7.47-26.81C72.62,95.16,85.46,71.75,87.22,68.39Z"/><path class="cls-2" d="M87,69.18s-14.52,41-35.94,47.4c0,0,17.56-15.57,16-31.8L87,69.18"/><path class="cls-3" d="M87,69.18s-14.52,41-35.94,47.4c0,0,17.56-15.57,16-31.8L87,69.18"/><path class="cls-4" d="M82.38,80C11.62,114.68,2.31,57.5,2.31,57.5S36,83.43,77.25,61.4c0,0,9.73,7.75,9.73,7.78-.28,1-1.15,3.19-1.32,3.6A49,49,0,0,1,82.38,80"/><path class="cls-5" d="M81,67.32C-3.12,91.95,0,26.64,0,26.64s23.51,35.47,69.63,28L81,67.32,68.47,73.87"/><path class="cls-6" d="M88.37,9.79C76,9.79,64.46,14.62,54.81,22.24a62,62,0,0,0-9.74,9.65q-1.37,1.69-2.62,3.47C16.12,20.77,7.59,0,7.59,0S-11.28,60,71.44,59.85h0c8.19,7.61,12.13,7.94,13,6.34,3.53-6.86,2.83,2.19,2.83,2.19a31.55,31.55,0,0,0,21.34-21.88c5.81.61,14.38,7,14.38,7C127.23,38.86,115.91,9.79,88.37,9.79Z"/><path class="cls-7" d="M88.64,9.8c2.9,9.55,3.39,21.9,2.72,33v-.05s15.4,3.19,17.2,3.73c5.81.61,14.38,7,14.38,7C127.22,38.91,116,10,88.64,9.8Z"/><path class="cls-8" d="M87.22,68.39a31.55,31.55,0,0,0,21.34-21.88c-1.8-.54-17.2-3.73-17.2-3.73C90.82,49.48,90.36,57.27,87.22,68.39Z"/><path class="cls-9" d="M87.22,68.39a31.55,31.55,0,0,0,21.34-21.88c-1.8-.54-17.2-3.73-17.2-3.73C90.82,49.48,90.36,57.27,87.22,68.39Z"/><path class="cls-2" d="M88.64,9.8c-10.93,0-23.42,5.59-27.7,16.24C56,38.28,63.92,52,72.3,60.77c3.58,3.74,8.26,7.3,13.49,8.24.37.07.82.15,1.19.18,0,0,12-26.95,1.66-59.39"/><path class="cls-10" d="M150.15,45.87a3.11,3.11,0,0,1,0-2.49,3.56,3.56,0,0,1,1.88-1.8,3.51,3.51,0,0,1,2.59,0,3.29,3.29,0,0,1,1.88,1.8l17.9,42,17.9-42a3.56,3.56,0,0,1,1.88-1.8,3.51,3.51,0,0,1,2.59,0,3.56,3.56,0,0,1,1.88,1.8,3.12,3.12,0,0,1,0,2.49l-5.12,12,11.74,27.5,17.9-42a3.29,3.29,0,0,1,1.82-1.8,3.68,3.68,0,0,1,2.66,0,3.3,3.3,0,0,1,1.82,1.8,2.8,2.8,0,0,1,0,2.49L208.38,95.27a3.09,3.09,0,0,1-3.11,2.05,3.14,3.14,0,0,1-3.18-2.05L189.84,66.52,177.58,95.27a3.49,3.49,0,0,1-6.36,0Z"/><path class="cls-10" d="M245.09,27.52a5,5,0,0,1-3.63-1.43,4.81,4.81,0,0,1,0-7,5.32,5.32,0,0,1,7.26,0,4.81,4.81,0,0,1,0,7A5,5,0,0,1,245.09,27.52ZM248.72,41a3.44,3.44,0,0,0-1-2.49,3.88,3.88,0,0,0-5.19,0,3.44,3.44,0,0,0-1,2.49V93.83a3.43,3.43,0,0,0,1,2.49,3.88,3.88,0,0,0,5.19,0,3.44,3.44,0,0,0,1-2.49Z"/><path class="cls-10" d="M274.92,71.94a15.52,15.52,0,0,1-11.15-4.42,14.74,14.74,0,0,1,0-21.4,15.52,15.52,0,0,1,11.15-4.42h14.53a15.53,15.53,0,0,1,11.15,4.42,3.2,3.2,0,0,1,1,2.3,3.06,3.06,0,0,1-1,2.3,3.55,3.55,0,0,1-4.8,0,8.72,8.72,0,0,0-6.36-2.55H274.92a8.86,8.86,0,0,0-6.36,2.55,8.32,8.32,0,0,0,0,12.19,8.86,8.86,0,0,0,6.36,2.55H288.6a16.34,16.34,0,0,1,11.74,4.67,15.47,15.47,0,0,1,0,22.52,16.34,16.34,0,0,1-11.74,4.67H272.71A16.34,16.34,0,0,1,261,92.65a3.21,3.21,0,0,1,0-4.6,3.33,3.33,0,0,1,2.4-.93,3.25,3.25,0,0,1,2.33.93,9.76,9.76,0,0,0,7,2.8H288.6a9.54,9.54,0,0,0,6.94-2.8,8.78,8.78,0,0,0,2.92-6.66,9,9,0,0,0-2.92-6.72,9.66,9.66,0,0,0-6.94-2.74Z"/><path class="cls-10" d="M337.43,97.32a23.9,23.9,0,0,1-17.25-6.91A22,22,0,0,1,313,73.87V65.09a23,23,0,0,1,6.55-16.73,21.89,21.89,0,0,1,16.34-6.72h.19a21.89,21.89,0,0,1,16.34,6.72A23,23,0,0,1,359,65.09v4.42a3,3,0,0,1-1,2.24,3.22,3.22,0,0,1-2.4,1H319.73v1.12a16,16,0,0,0,5.19,12,17.42,17.42,0,0,0,12.52,5h.19a17,17,0,0,0,14.2-6.91,3.25,3.25,0,0,1,2.27-1.31,3.48,3.48,0,0,1,2.53.62,3.11,3.11,0,0,1,1.3,2.12,3.05,3.05,0,0,1-.65,2.43,24,24,0,0,1-8.62,7,24.9,24.9,0,0,1-11,2.49Zm-17.7-31.1h32.49V65.09A16.94,16.94,0,0,0,347.68,53a15.42,15.42,0,0,0-11.61-4.79h-.19A15.21,15.21,0,0,0,324.33,53a16.8,16.8,0,0,0-4.6,12.13Z"/><path class="cls-10" d="M393.78,42.39a23.75,23.75,0,0,1,17.06,6.78,21.85,21.85,0,0,1,7.07,16.36v8.65a21.85,21.85,0,0,1-7.07,16.36,23.75,23.75,0,0,1-17.06,6.78h-.19a23.74,23.74,0,0,1-17.06-6.78,21.85,21.85,0,0,1-7.07-16.36V20.86a3,3,0,0,1,1-2.24,3.33,3.33,0,0,1,2.4-.93,3.25,3.25,0,0,1,2.33.93,3,3,0,0,1,1,2.24V49.6a23.59,23.59,0,0,1,17.44-7.22Zm17.44,23.14a15.89,15.89,0,0,0-5.06-11.82,17.25,17.25,0,0,0-12.39-4.91h-.19a17.16,17.16,0,0,0-12.32,4.91,15.79,15.79,0,0,0-5.12,11.82v8.65A15.79,15.79,0,0,0,381.27,86a17.16,17.16,0,0,0,12.32,4.91h.19A17.24,17.24,0,0,0,406.17,86a15.89,15.89,0,0,0,5.06-11.82Z"/><path class="cls-10" d="M436.19,27.52a5,5,0,0,1-3.63-1.43,4.81,4.81,0,0,1,0-7,5.32,5.32,0,0,1,7.26,0,4.81,4.81,0,0,1,0,7A5,5,0,0,1,436.19,27.52ZM439.82,41a3.44,3.44,0,0,0-1-2.49,3.88,3.88,0,0,0-5.19,0,3.44,3.44,0,0,0-1,2.49V93.83a3.43,3.43,0,0,0,1,2.49,3.88,3.88,0,0,0,5.19,0,3.44,3.44,0,0,0,1-2.49Z"/><path class="cls-10" d="M457.14,97.32a3.48,3.48,0,0,1-2.4-.93,3.19,3.19,0,0,1-1-2.3V65.16A22.19,22.19,0,0,1,461,48.55a24,24,0,0,1,17.25-6.84h4.09a3.48,3.48,0,0,1,2.4.93,3.21,3.21,0,0,1,0,4.6,3.48,3.48,0,0,1-2.4.93h-4.09a17.43,17.43,0,0,0-12.52,5,16,16,0,0,0-5.19,12V94.08a3.19,3.19,0,0,1-1,2.3A3.33,3.33,0,0,1,457.14,97.32Z"/><path class="cls-10" d="M537.23,17.69a3.25,3.25,0,0,1,2.33.93,3.06,3.06,0,0,1,1,2.3V74.18a21.85,21.85,0,0,1-7.07,16.36,23.75,23.75,0,0,1-17.06,6.78h-.19a23.74,23.74,0,0,1-17.06-6.78,21.85,21.85,0,0,1-7.07-16.36V65.59a21.85,21.85,0,0,1,7.07-16.36,23.75,23.75,0,0,1,17.06-6.78h.19a23.7,23.7,0,0,1,17.44,7.15V20.92a3.06,3.06,0,0,1,1-2.3A3.33,3.33,0,0,1,537.23,17.69Zm-3.37,47.9a15.87,15.87,0,0,0-5.12-11.88,17.28,17.28,0,0,0-12.32-4.85h-.19a17.28,17.28,0,0,0-12.32,4.85,15.86,15.86,0,0,0-5.12,11.88v8.59A15.79,15.79,0,0,0,503.9,86a17.16,17.16,0,0,0,12.32,4.91h.19A17.16,17.16,0,0,0,528.73,86a15.8,15.8,0,0,0,5.12-11.82Z"/></g></g></svg>