<svg xmlns="http://www.w3.org/2000/svg" xmlns:xlink="http://www.w3.org/1999/xlink" viewBox="0 0 76.48 80"><defs><style>.cls-1{fill:url(#Naamloos_verloop_10);}.cls-2{fill:#f1f2f3;}.cls-3{fill:url(#Naamloos_verloop_45);}.cls-4{fill:url(#Naamloos_verloop_12);}.cls-5{fill:url(#Naamloos_verloop_12-2);}.cls-6{fill:url(#Naamloos_verloop_12-3);}.cls-7{fill:url(#Naamloos_verloop_16);}.cls-8{fill:url(#Naamloos_verloop_16-2);}.cls-9{fill:url(#Naamloos_verloop_45-2);}</style><linearGradient id="Naamloos_verloop_10" x1="30.88" y1="80" x2="30.88" y2="42.24" gradientUnits="userSpaceOnUse"><stop offset="0" stop-color="#00b0ff"/><stop offset="0.02" stop-color="#03adfd"/><stop offset="0.21" stop-color="#2b89e0"/><stop offset="0.32" stop-color="#3a7bd5"/><stop offset="0.42" stop-color="#3a78d1"/><stop offset="0.53" stop-color="#3a6fc4"/><stop offset="0.65" stop-color="#3a61b0"/><stop offset="0.76" stop-color="#3a4d93"/><stop offset="0.76" stop-color="#3a4c92"/></linearGradient><linearGradient id="Naamloos_verloop_45" x1="31.52" y1="57.36" x2="53.72" y2="57.36" gradientUnits="userSpaceOnUse"><stop offset="0" stop-color="#fff" stop-opacity="0"/><stop offset="1" stop-opacity="0.3"/></linearGradient><linearGradient id="Naamloos_verloop_12" x1="1.43" y1="45.91" x2="53.72" y2="45.91" gradientUnits="userSpaceOnUse"><stop offset="0" stop-color="#00b0ff"/><stop offset="0.35" stop-color="#1a98ec"/><stop offset="0.75" stop-color="#3183db"/><stop offset="1" stop-color="#3a7bd5"/></linearGradient><linearGradient id="Naamloos_verloop_12-2" x1="16.7" y1="43.44" x2="27.48" y2="24.77" xlink:href="#Naamloos_verloop_12"/><linearGradient id="Naamloos_verloop_12-3" x1="3.54" y1="21.12" x2="76.48" y2="21.12" xlink:href="#Naamloos_verloop_12"/><linearGradient id="Naamloos_verloop_16" x1="54.74" y1="19.56" x2="76.48" y2="19.56" gradientUnits="userSpaceOnUse"><stop offset="0" stop-color="#ff5e62"/><stop offset="0.25" stop-color="#ff6763"/><stop offset="0.64" stop-color="#ff7e64"/><stop offset="1" stop-color="#f96"/></linearGradient><linearGradient id="Naamloos_verloop_16-2" x1="53.87" y1="34.33" x2="67.05" y2="34.33" xlink:href="#Naamloos_verloop_16"/><linearGradient id="Naamloos_verloop_45-2" x1="58.99" y1="43.14" x2="61.78" y2="27.36" xlink:href="#Naamloos_verloop_45"/></defs><title>Middel 3</title><g id="Laag_2" data-name="Laag 2"><g id="Laag_6" data-name="Laag 6"><path class="cls-1" d="M53.87,42.24S45.07,73.83,7.9,80c.65-.11,1.67-1.47,2.09-1.9A30.2,30.2,0,0,0,14.48,72c2.95-5.21,4.13-10.8,4.61-16.56C44.85,58.77,52.78,44.31,53.87,42.24Z"/><path class="cls-2" d="M53.72,42.73S44.75,68,31.52,72c0,0,10.84-9.61,9.91-19.64l12.29-9.63"/><path class="cls-3" d="M53.72,42.73S44.75,68,31.52,72c0,0,10.84-9.61,9.91-19.64l12.29-9.63"/><path class="cls-4" d="M50.88,49.4C7.17,70.83,1.43,35.51,1.43,35.51s20.84,16,46.29,2.41c0,0,6,4.79,6,4.81-.17.63-.71,2-.81,2.23a30.29,30.29,0,0,1-2,4.44"/><path class="cls-5" d="M50,41.57C-1.93,56.79,0,16.45,0,16.45S14.53,38.36,43,33.74l7,7.83-7.76,4"/><path class="cls-6" d="M54.58,6c-7.67,0-14.77,3-20.73,7.69a38.31,38.31,0,0,0-6,6q-.84,1-1.62,2.15C10,12.83,4.69,0,4.69,0S-7,37,44.12,37h0c5.06,4.7,7.49,4.91,8,3.92,2.18-4.24,1.75,1.35,1.75,1.35A19.49,19.49,0,0,0,67.05,28.72c3.59.38,8.88,4.35,8.88,4.35C78.58,24,71.59,6,54.58,6Z"/><path class="cls-7" d="M54.74,6.05c1.79,5.9,2.09,13.53,1.68,20.4v0s9.51,2,10.62,2.3c3.59.38,8.88,4.35,8.88,4.35C78.57,24,71.63,6.17,54.74,6.05Z"/><path class="cls-8" d="M53.87,42.24A19.49,19.49,0,0,0,67.05,28.72c-1.11-.33-10.62-2.3-10.62-2.3A73.64,73.64,0,0,1,53.87,42.24Z"/><path class="cls-9" d="M53.87,42.24A19.49,19.49,0,0,0,67.05,28.72c-1.11-.33-10.62-2.3-10.62-2.3A73.64,73.64,0,0,1,53.87,42.24Z"/><path class="cls-2" d="M54.74,6.05C48,6,40.28,9.5,37.64,16.08c-3,7.56,1.84,16,7,21.45,2.21,2.31,5.1,4.51,8.33,5.09.23,0,.5.09.74.11a55.66,55.66,0,0,0,1-36.68"/></g></g></svg>