<svg xmlns="http://www.w3.org/2000/svg" viewBox="0 0 277.22 200"><defs><style>.cls-1{opacity:0.12;}.cls-2{fill:#fff;}</style></defs><title>Middel 2</title><g id="Laag_2" data-name="Laag 2"><g id="Logo"><g class="cls-1"><path class="cls-2" d="M240.07,146.18c18.91-11,30.3-26.79,37.16-42.21V66.21a174.41,174.41,0,0,1-27.67,24.44C279.22,59,275.26,17.47,271.87,0h-6.16c-8.53,15.25-31.14,48.53-76.76,73.84q-2.9-4.14-6.08-8.07a144,144,0,0,0-22.62-22.41c-22.39-17.7-49.09-28.91-77.92-28.91-44,0-70.2,32-79,63.06v.05q-.29,1-.56,2.05l0,.08q-.26,1-.49,2l0,.17c-.15.64-.29,1.28-.42,1.92l0,.22c-.13.62-.25,1.24-.37,1.86l0,.27c-.11.6-.21,1.2-.31,1.79L1,88.3C.88,88.87.8,89.43.72,90c0,.16,0,.31-.06.46C.6,91,.53,91.52.47,92c0,.16,0,.31,0,.47-.05.52-.11,1-.15,1.55,0,.19,0,.38,0,.57,0,.48-.07,1-.1,1.43,0,.21,0,.41,0,.62,0,.45,0,.91-.06,1.36,0,.22,0,.44,0,.66,0,.43,0,.87,0,1.3,0,.25,0,.49,0,.74,0,.4,0,.8,0,1.19s0,.52,0,.79,0,.74,0,1.11,0,.55.05.82,0,.7.07,1,.06.59.08.88.06.64.09.95.08.61.12.92.07.59.11.87.1.63.15.94.08.54.13.81.13.68.2,1,.09.47.14.69c.09.4.18.79.27,1.19,0,.16.07.32.11.48q.21.82.44,1.62S21.94,101.12,35.43,99.7c0,0,7.79,37.33,49.33,50.72.5,1.26.8,1.93.8,1.93C86,154,87.15,157,87.92,159q.58,1.51,1.29,3.25a115.15,115.15,0,0,0,6.16,13.68c3.32,7.21,7.44,15.52,12.26,24.1H216.29c36.85-9.82,53.71-39,60.93-57.86V128.61A168.37,168.37,0,0,1,240.07,146.18Z"/><line class="cls-2" x1="277.22" y1="142.14" x2="277.22" y2="128.61"/><line class="cls-2" x1="277.22" y1="103.97" x2="277.22" y2="66.21"/><line class="cls-2" x1="265.71" x2="271.87"/><line class="cls-2" x1="216.29" y1="200" x2="107.63" y2="200"/></g></g></g></svg>