<?xml version="1.0" encoding="utf-8"?>
<!-- Generator: Adobe Illustrator 21.1.0, SVG Export Plug-In . SVG Version: 6.00 Build 0)  -->
<svg version="1.1" id="Laag_1" xmlns="http://www.w3.org/2000/svg" xmlns:xlink="http://www.w3.org/1999/xlink" x="0px" y="0px"
	 viewBox="0 0 24 24" style="enable-background:new 0 0 24 24;" xml:space="preserve">
<style type="text/css">
	.st0{fill:none;}
	.st1{fill:#FAFAFA;}
</style>
<path class="st0" d="M0,0h24v24H0V0z"/>
<path class="st1" d="M9.5,22.2v-7c0-0.1,0.1-0.2,0.2-0.2h4.5c0.1,0,0.2,0.1,0.2,0.2v7c0,0.1,0.1,0.2,0.2,0.2h5.7
	c0.1,0,0.2-0.1,0.2-0.2v-9.4c0-0.1,0.1-0.2,0.2-0.2h2.9c0.2,0,0.3-0.3,0.2-0.4L12.2,1.6c-0.1-0.1-0.2-0.1-0.3,0L0.1,12.2
	c-0.2,0.1-0.1,0.4,0.2,0.4h2.9c0.1,0,0.2,0.1,0.2,0.2v9.4c0,0.1,0.1,0.2,0.2,0.2h5.7C9.4,22.5,9.5,22.4,9.5,22.2z"/>
</svg>
