<?xml version="1.0" encoding="utf-8"?>
<!-- Generator: Adobe Illustrator 21.1.0, SVG Export Plug-In . SVG Version: 6.00 Build 0)  -->
<svg version="1.1" id="Laag_1" xmlns="http://www.w3.org/2000/svg" xmlns:xlink="http://www.w3.org/1999/xlink" x="0px" y="0px"
	 viewBox="0 0 24 24" style="enable-background:new 0 0 24 24;" xml:space="preserve">
<style type="text/css">
	.st0{fill:none;}
	.st1{fill:#FAFAFA;}
</style>
<path class="st0" d="M0,0h24v24H0V0z"/>
<g id="Laag_2">
	<g id="Primary_nav">
		<path class="st1" d="M20.4,3.6H20l0.6-2.5c0.1-0.5-0.2-1-0.7-1.1c-0.1,0-0.1,0-0.2,0H4.1C3.6,0,3.2,0.4,3.2,0.9c0,0.1,0,0.1,0,0.2
			l0.6,2.5H0l2.8,10.7h3.7l0.2,0.7c0.1,0.2,0.2,0.5,0.4,0.6l4.4,2.4c0.3,0.1,0.6,0.1,0.9,0l4.4-2.4c0.2-0.1,0.4-0.3,0.4-0.6l0.2-0.7
			H21l2.8-10.7H20.4z M4.1,12.5l-1.7-7h1.9l1.7,7H4.1z M19.6,12.5h-1.8l1.7-7h1.8L19.6,12.5z"/>
		<path class="st1" d="M16.1,21.2c-0.1-0.1-0.2-0.2-0.4-0.2H8c-0.2,0-0.3,0.1-0.4,0.2l-1.2,2.1c-0.1,0.2,0,0.5,0.2,0.6
			C6.7,24,6.8,24,6.9,24h10.1c0.2,0,0.4-0.2,0.4-0.4c0-0.1,0-0.1-0.1-0.2L16.1,21.2z"/>
	</g>
</g>
</svg>
