<?xml version="1.0" encoding="utf-8"?>
<!-- Generator: Adobe Illustrator 21.1.0, SVG Export Plug-In . SVG Version: 6.00 Build 0)  -->
<svg version="1.1" id="Laag_1" xmlns="http://www.w3.org/2000/svg" xmlns:xlink="http://www.w3.org/1999/xlink" x="0px" y="0px"
	 viewBox="0 0 24 24" style="enable-background:new 0 0 24 24;" xml:space="preserve">
<style type="text/css">
	.st0{fill:none;}
	.st1{fill:#FAFAFA;}
</style>
<path class="st0" d="M0,0h24v24H0V0z"/>
<path class="st1" d="M23.8,12.1l-6.1-4.5c-0.3-0.3-0.8,0-0.8,0.4v2.4h-5.7v4.2h5.7v2.5c0,0.4,0.5,0.7,0.8,0.4l6.1-4.6
	C24.1,12.7,24.1,12.3,23.8,12.1z"/>
<path class="st1" d="M9.1,17.3c-0.7,0-1.3-0.6-1.3-1.4v-7c0-0.8,0.6-1.4,1.3-1.4h5.6V2c0-1.1-0.8-2-1.8-2H1.9c-1,0-1.8,0.9-1.8,2v20
	c0,1.1,0.8,2,1.8,2h10.9c1,0,1.8-0.9,1.8-2v-4.8H9.1z"/>
</svg>
