<?xml version="1.0" encoding="utf-8"?>
<!-- Generator: Adobe Illustrator 21.1.0, SVG Export Plug-In . SVG Version: 6.00 Build 0)  -->
<svg version="1.1" id="Laag_1" xmlns="http://www.w3.org/2000/svg" xmlns:xlink="http://www.w3.org/1999/xlink" x="0px" y="0px"
	 viewBox="0 0 24 24" style="enable-background:new 0 0 24 24;" xml:space="preserve">
<style type="text/css">
	.st0{fill:none;}
	.st1{fill:#FAFAFA;}
</style>
<path class="st0" d="M0,0h24v24H0V0z"/>
<path class="st1" d="M20.9,13.2c0-0.4,0.1-0.8,0.1-1.2s0-0.8-0.1-1.2l2.5-2c0.2-0.2,0.3-0.5,0.1-0.8l-2.4-4.2
	c-0.1-0.3-0.5-0.4-0.7-0.3l-3,1.2c-0.6-0.5-1.3-0.9-2-1.2L15,0.5C15,0.2,14.7,0,14.4,0H9.6C9.3,0,9,0.2,9,0.5L8.6,3.7
	C7.8,4,7.2,4.4,6.5,4.9l-3-1.2C3.3,3.6,3,3.7,2.8,3.9L0.4,8.1C0.3,8.3,0.3,8.7,0.6,8.8l2.5,2C3,11.2,3,11.6,3,12s0,0.8,0.1,1.2
	l-2.5,2c-0.2,0.2-0.3,0.5-0.1,0.8l2.4,4.2c0.1,0.3,0.5,0.4,0.7,0.3l3-1.2c0.6,0.5,1.3,0.9,2,1.2L9,23.5C9,23.8,9.3,24,9.6,24h4.8
	c0.3,0,0.6-0.2,0.6-0.5l0.5-3.2c0.7-0.3,1.4-0.7,2-1.2l3,1.2c0.3,0.1,0.6,0,0.7-0.3l2.4-4.2c0.1-0.3,0.1-0.6-0.1-0.8L20.9,13.2z
	 M12,16.2c-2.3,0-4.2-1.9-4.2-4.2S9.7,7.8,12,7.8s4.2,1.9,4.2,4.2S14.3,16.2,12,16.2z"/>
</svg>
