<svg xmlns="http://www.w3.org/2000/svg" xmlns:xlink="http://www.w3.org/1999/xlink" viewBox="0 0 1920 1080"><defs><style>.cls-1{fill:#f5826f;}.cls-2{fill:#f5a67d;}.cls-3{fill:#f6ac7b;}.cls-4{fill:#fecd8a;}.cls-5{opacity:0.7;}.cls-6{fill:url(#Naamloos_verloop_1907);}.cls-7{fill:#08b4b6;}.cls-8{fill:#0ebdc0;}.cls-9{fill:#15c7c9;}.cls-10{fill:#51e7e8;}.cls-11{opacity:0.54;}.cls-12{fill:url(#Naamloos_verloop_3);}.cls-13{fill:#fdf2d2;}.cls-14{fill:#fce9a5;}.cls-15{fill:#fce28b;}.cls-16{opacity:0.45;fill:url(#Naamloos_verloop_1893);}</style><linearGradient id="Naamloos_verloop_1907" x1="960.09" y1="593.43" x2="960.09" gradientUnits="userSpaceOnUse"><stop offset="0" stop-color="#f2826e"/><stop offset="0.49" stop-color="#d16273"/><stop offset="1" stop-color="#955377"/></linearGradient><linearGradient id="Naamloos_verloop_3" x1="960.09" y1="588.3" x2="960.09" y2="608.46" gradientUnits="userSpaceOnUse"><stop offset="0" stop-color="#07514f"/><stop offset="0.65" stop-color="#b16e8f" stop-opacity="0.31"/><stop offset="1" stop-color="#ff7bac" stop-opacity="0"/></linearGradient><linearGradient id="Naamloos_verloop_1893" x1="0.19" y1="962.41" x2="1920" y2="962.41" gradientUnits="userSpaceOnUse"><stop offset="0" stop-color="#f8b500"/><stop offset="0.12" stop-color="#f9bc19"/><stop offset="0.55" stop-color="#fad56f"/><stop offset="0.85" stop-color="#fce4a6"/><stop offset="1" stop-color="#fceabb"/></linearGradient></defs><title>Middel 4</title><g id="Laag_2" data-name="Laag 2"><g id="Laag_1-2" data-name="Laag 1"><rect class="cls-1" x="0.19" width="1919.81" height="492.23"/><path class="cls-2" d="M.19,51.09S450.71,17.3,650.37,105.53c0,0,737.21-43.18,860.07,54.44,0,0,363.48-50.28,409.56,11.67v320.6L.19,484.68Z"/><path class="cls-3" d="M.19,281.74s317.41-47,558-17.81c0,0,302-35.44,578.5,4.14,0,0,542.67-31.69,604.1-2.53,0,0,179.19-1.61,179.18,16.2s0,223.45,0,223.45H.19Z"/><path class="cls-4" d="M.19,426.65S71.86,317,261.28,358.11c0,0,189.42-66.25,368.6,0,0,0,363.48-50,532.43,19.55,0,0-17.39-74.34,302-49,25.6,2,179.18-36.81,291.81,11.17,0,0,163.82-45.69,163.82,9.14V593.43H0Z"/><g class="cls-5"><rect class="cls-6" x="0.19" width="1919.81" height="593.43"/></g><path class="cls-7" d="M1920,885.38c-226-16.55-611.58-28.46-931.75-28.46C648,856.92,302.15,868.14.19,885.05V590.29c316.93-1.93,1620.07-1.69,1919.81,0C1920,712,1920,792.36,1920,885.38Z"/><path class="cls-8" d="M.19,749.69s381.27,42.66,609.22,35.62S1305.66,740,1479.72,740,1920,763,1920,763V916.46H.19Z"/><path class="cls-9" d="M0,806.36s445.59-48.58,722-42.1c0,0,870.31,47,1034.14,29.15L1920,775.59V934.5H.19Z"/><path class="cls-10" d="M.19,836.73s368.6-33.61,885.67-17.42S1920,825.82,1920,825.82v82.55H.19Z"/><g class="cls-11"><path class="cls-12" d="M.19,596.94s638.23,25.91,1919.81,0v-6.62S549.67,585.8.19,590.29Z"/></g><path class="cls-13" d="M1920,966.12H.19V884.93S908,793.86,1920,885.38Z"/><path class="cls-14" d="M1920,1015.75.19,1026.57V928.25s532.43-77.52,1126.29,0S1920,935.81,1920,935.81Z"/><path class="cls-15" d="M1920,1080H.19v-48.66s-34.13-118,812.29-50.13S1920,995,1920,995Z"/><path class="cls-16" d="M.19,1080V884.93s875.44-90.54,1919.81.45h0V1080H.19"/></g></g></svg>