<svg xmlns="http://www.w3.org/2000/svg" viewBox="0 0 320.27 450.94"><defs><style>.cls-1{fill:#3a2517;opacity:0.12;}.cls-2{fill:#805333;}.cls-3{fill:#7f6e5d;}.cls-4{fill:#cbb292;}.cls-5{fill:#4fba6f;}.cls-6{fill:#4c8056;}.cls-7{fill:#cb8252;}</style></defs><title>Middel 3</title><g id="Laag_2" data-name="Laag 2"><g id="Laag_1-2" data-name="Laag 1"><path class="cls-1" d="M177,342.15c-28.85,0-54.81,6.71-73,17.43a27.69,27.69,0,1,0-24.79,47.08c8.68,25.21,49.14,44.28,97.78,44.28,55,0,99.53-24.36,99.53-54.4S232,342.15,177,342.15Z"/><path class="cls-2" d="M184.16,124.39c-.79.06-1.55.24-2.35.24a27.44,27.44,0,0,1-17.45-6.35,27,27,0,0,1,3.6,13.27,27.45,27.45,0,0,1-2.62,11.6C179.71,220,197.9,357.77,154.11,401.56H251S248.34,221,184.16,124.39Z"/><circle class="cls-3" cx="84.87" cy="373.87" r="27.69"/><circle class="cls-4" cx="181.8" cy="96.93" r="27.69"/><path class="cls-5" d="M229.27,39.35c-24.14,6.47-44,18.69-56.34,31.47a27.15,27.15,0,0,1,35,17.26L230,82.17l6.45-16.06,13.62,10.69L320.27,58C315.32,39.51,273.59,27.48,229.27,39.35Z"/><path class="cls-6" d="M164.93,75.11c-6-18-23.6-40.35-49.78-56.2C75.89-4.84,32.46-4.92,22.56,11.44L84.76,49.08l16.06-6.47,1.72,17.23,52.14,31.56A27.57,27.57,0,0,1,164.93,75.11Z"/><path class="cls-5" d="M154.11,96.93a27.32,27.32,0,0,1,.88-6.6c-14-12.81-48.58-19.18-85-9.43C25.71,92.77-4.42,124.05.53,142.52l70.22-18.82,6.45-16.06,13.62,10.69,32.8-8.79a27.4,27.4,0,0,1,16.65-5.7,26.58,26.58,0,0,1,3.34.34l10.95-2.94A27.86,27.86,0,0,1,154.11,96.93Z"/><path class="cls-3" d="M157.58,110.1a27.39,27.39,0,0,0-17.32-6.24,28,28,0,1,0,24.23,14.53A27.6,27.6,0,0,1,157.58,110.1Z"/><path class="cls-7" d="M221.45,207.7H175.54q.87,6.85,1.65,13.85h48.27Q223.54,214.6,221.45,207.7Z"/><path class="cls-7" d="M203.25,159.24c-2.16-4.71-4.4-9.35-6.76-13.85H165.75q1.24,6.66,2.49,13.85Z"/><path class="cls-7" d="M246,332.32h-66.4c-.52,4.74-1.14,9.37-1.9,13.85h69.75C247,341.74,246.56,337.12,246,332.32Z"/><path class="cls-7" d="M181.51,283.86h57.65Q238,277,236.65,270H181.06C181.26,274.65,181.42,279.28,181.51,283.86Z"/></g></g></svg>